<svg width="933" height="567" viewBox="0 0 933 567" fill="none" xmlns="http://www.w3.org/2000/svg">
<mask id="mask0_5_50" style="mask-type:luminance" maskUnits="userSpaceOnUse" x="0" y="0" width="933" height="567">
<path d="M932.532 0.929688H0.818481V566.422H932.532V0.929688Z" fill="white"/>
</mask>
<g mask="url(#mask0_5_50)">
<mask id="mask1_5_50" style="mask-type:luminance" maskUnits="userSpaceOnUse" x="0" y="0" width="933" height="567">
<path d="M932.532 0.929688H0.818481V566.422H932.532V0.929688Z" fill="white"/>
</mask>
<g mask="url(#mask1_5_50)">
<mask id="mask2_5_50" style="mask-type:luminance" maskUnits="userSpaceOnUse" x="0" y="0" width="933" height="567">
<path d="M932.532 0.929688H0.818481V566.422H932.532V0.929688Z" fill="white"/>
</mask>
<g mask="url(#mask2_5_50)">
<mask id="mask3_5_50" style="mask-type:luminance" maskUnits="userSpaceOnUse" x="0" y="341" width="933" height="226">
<path d="M932.532 341.066H0.818481V566.422H932.532V341.066Z" fill="white"/>
</mask>
<g mask="url(#mask3_5_50)">
<mask id="mask4_5_50" style="mask-type:luminance" maskUnits="userSpaceOnUse" x="0" y="341" width="933" height="226">
<path d="M932.532 341.066H0.818481V566.422H932.532V341.066Z" fill="white"/>
</mask>
<g mask="url(#mask4_5_50)">
<mask id="mask5_5_50" style="mask-type:luminance" maskUnits="userSpaceOnUse" x="0" y="341" width="933" height="122">
<path d="M932.532 341.066H0.818481V462.612H932.532V341.066Z" fill="white"/>
</mask>
<g mask="url(#mask5_5_50)">
<mask id="mask6_5_50" style="mask-type:luminance" maskUnits="userSpaceOnUse" x="0" y="341" width="933" height="122">
<path d="M932.532 341.066H0.818481V462.612H932.532V341.066Z" fill="white"/>
</mask>
<g mask="url(#mask6_5_50)">
<path d="M60.4419 417.61V409.619C60.4419 406.535 60.5821 403.731 60.8625 401.208L60.5821 400.787C57.9652 401.161 55.1146 401.413 52.0304 401.544C48.9462 401.694 46.0956 401.722 43.4787 401.628V383.403L80.0687 383.263V430.928C75.7695 432.891 70.8909 434.405 65.4327 435.471C59.9559 436.555 53.0117 437.097 44.6002 437.097C33.3849 437.097 24.5996 435.573 18.2442 432.527C11.8889 429.498 7.40275 424.592 4.78584 417.806C2.16893 411.04 0.860474 402.002 0.860474 390.693C0.860474 381.534 1.91659 374.011 4.02881 368.123C6.12234 362.234 9.20655 357.674 13.2814 354.44C17.3376 351.225 22.3098 348.982 28.1978 347.711C34.0859 346.458 40.8151 345.832 48.3854 345.832C52.8716 345.832 57.3857 346.019 61.9279 346.393C66.4515 346.767 70.9563 347.468 75.4424 348.496V367.001L75.0218 367.281C71.0965 366.347 67.1991 365.693 63.3299 365.319C59.4419 364.945 55.5352 364.758 51.6098 364.758C45.9087 364.758 40.9366 365.337 36.6934 366.496C32.4316 367.674 29.1324 370.085 26.7959 373.73C24.4594 377.375 23.2911 383.03 23.2911 390.693C23.2911 398.264 23.9267 404.03 25.1977 407.993C26.4501 411.974 28.8334 414.685 32.3475 416.124C35.8429 417.582 40.8618 418.311 47.4041 418.311C48.2452 418.311 49.5537 418.283 51.3294 418.227C53.1052 418.19 54.881 418.124 56.6567 418.031C58.4325 417.937 59.6942 417.797 60.4419 417.61ZM90.5831 402.189C90.5831 389.665 93.2467 380.646 98.574 375.132C103.902 369.618 112.921 366.861 125.631 366.861C134.136 366.861 140.959 368.076 146.099 370.506C151.24 372.936 154.95 376.74 157.23 381.917C159.53 387.114 160.679 393.871 160.679 402.189C160.679 410.414 159.53 417.096 157.23 422.236C154.95 427.377 151.24 431.134 146.099 433.508C140.959 435.901 134.136 437.097 125.631 437.097C112.921 437.097 103.902 434.358 98.574 428.882C93.2467 423.423 90.5831 414.526 90.5831 402.189ZM125.631 417.891C131.052 417.891 134.716 416.694 136.622 414.302C138.548 411.928 139.51 407.75 139.51 401.769C139.51 396.067 138.548 391.974 136.622 389.488C134.716 387.02 131.052 385.787 125.631 385.787C120.397 385.787 116.771 387.02 114.752 389.488C112.752 391.974 111.752 396.067 111.752 401.769C111.752 407.75 112.752 411.928 114.752 414.302C116.771 416.694 120.397 417.891 125.631 417.891ZM167.689 402.189C167.689 389.665 170.343 380.646 175.652 375.132C180.998 369.618 190.026 366.861 202.737 366.861C211.242 366.861 218.064 368.076 223.205 370.506C228.345 372.936 232.055 376.74 234.336 381.917C236.635 387.114 237.785 393.871 237.785 402.189C237.785 410.414 236.635 417.096 234.336 422.236C232.055 427.377 228.345 431.134 223.205 433.508C218.064 435.901 211.242 437.097 202.737 437.097C190.026 437.097 180.998 434.358 175.652 428.882C170.343 423.423 167.689 414.526 167.689 402.189ZM202.737 417.891C208.157 417.891 211.821 416.694 213.728 414.302C215.653 411.928 216.616 407.75 216.616 401.769C216.616 396.067 215.653 391.974 213.728 389.488C211.821 387.02 208.157 385.787 202.737 385.787C197.503 385.787 193.877 387.02 191.858 389.488C189.858 391.974 188.858 396.067 188.858 401.769C188.858 407.75 189.858 411.928 191.858 414.302C193.877 416.694 197.503 417.891 202.737 417.891ZM254.72 431.629V431.209C251.635 429.9 249.392 428.218 247.99 426.162C246.589 424.106 245.888 421.629 245.888 418.732C245.888 416.115 246.617 413.825 248.075 411.862C249.514 409.9 251.449 408.358 253.879 407.236V406.815C251.542 404.946 249.841 402.582 248.776 399.722C247.691 396.88 247.149 393.591 247.149 389.852C247.149 382.375 249.579 376.674 254.439 372.749C259.299 368.823 267.711 366.861 279.674 366.861C289.487 366.861 296.964 368.263 302.104 371.067H302.805C304.301 368.637 306.217 366.627 308.553 365.038C310.89 363.449 313.74 362.655 317.105 362.655C318.133 362.655 319.068 362.674 319.909 362.711C320.75 362.767 321.544 362.842 322.292 362.935V380.179C320.516 379.805 318.413 379.618 315.983 379.618C314.021 379.618 312.152 379.805 310.376 380.179C311.404 382.889 311.918 386.114 311.918 389.852C311.918 397.89 309.488 403.684 304.628 407.236C299.768 410.788 291.45 412.563 279.674 412.563C276.963 412.563 274.44 412.47 272.103 412.283C269.767 412.096 267.617 411.816 265.655 411.442C265.281 412.189 265.094 413.077 265.094 414.105C265.094 415.601 265.589 416.834 266.58 417.806C267.552 418.797 269.253 419.292 271.683 419.292H291.87C300.469 419.292 306.899 420.648 311.161 423.358C315.404 426.068 317.526 431.302 317.526 439.059C317.526 446.723 314.535 452.565 308.553 456.583C302.572 460.602 292.478 462.612 278.272 462.612C266.589 462.612 258.084 461.051 252.757 457.929C247.43 454.789 244.766 450.228 244.766 444.247C244.766 440.975 245.654 438.237 247.43 436.031C249.205 433.844 251.635 432.377 254.72 431.629ZM279.674 397.563C284.066 397.563 287.151 397.021 288.926 395.937C290.702 394.871 291.59 392.936 291.59 390.133C291.59 387.329 290.702 385.273 288.926 383.964C287.151 382.656 284.066 382.001 279.674 382.001C275.188 382.001 272.057 382.656 270.281 383.964C268.505 385.273 267.617 387.329 267.617 390.133C267.617 392.936 268.505 394.871 270.281 395.937C272.057 397.021 275.188 397.563 279.674 397.563ZM280.936 446.069C285.889 446.069 289.534 445.835 291.87 445.368C294.207 444.901 295.749 444.2 296.497 443.265C297.244 442.331 297.618 441.162 297.618 439.76C297.618 438.172 297.151 436.882 296.216 435.891C295.282 434.919 293.88 434.433 292.011 434.433H270.561C268.692 434.433 267.29 434.919 266.356 435.891C265.421 436.882 264.954 438.172 264.954 439.76C264.954 441.162 265.356 442.331 266.159 443.265C266.944 444.2 268.486 444.901 270.786 445.368C273.066 445.835 276.449 446.069 280.936 446.069ZM351.732 341.486V435.835H329.302V341.486H351.732ZM428.697 418.031V433.592C426.081 434.527 422.454 435.34 417.819 436.031C413.202 436.742 407.715 437.097 401.36 437.097C393.322 437.097 386.472 436.041 380.808 433.928C375.163 431.835 370.892 428.237 367.995 423.134C365.097 418.049 363.649 410.974 363.649 401.909C363.649 389.572 366.471 380.646 372.116 375.132C377.78 369.618 386.547 366.861 398.416 366.861C406.921 366.861 413.622 368.076 418.52 370.506C423.436 372.936 426.94 376.366 429.034 380.796C431.146 385.245 432.202 390.506 432.202 396.581C432.202 398.357 432.128 400.273 431.978 402.329C431.847 404.385 431.595 406.395 431.221 408.358L430.66 408.918H384.537C385.191 413.031 387.126 415.741 390.341 417.049C393.575 418.358 398.837 419.012 406.127 419.012C410.987 419.012 415.024 418.891 418.239 418.648C421.473 418.423 424.772 418.077 428.137 417.61L428.697 418.031ZM384.117 394.198H412.716C412.716 391.955 412.36 390.011 411.65 388.366C410.959 386.74 409.585 385.478 407.529 384.581C405.472 383.702 402.435 383.263 398.416 383.263C392.528 383.263 388.668 384.263 386.836 386.263C385.023 388.282 384.117 390.927 384.117 394.198ZM508.579 407.376V435.835H486.148V347.094H528.486C539.608 347.094 547.72 349.589 552.823 354.58C557.907 359.59 560.45 366.954 560.45 376.674C560.45 383.964 558.627 390.198 554.982 395.376C551.337 400.572 546.524 403.825 540.542 405.133L540.402 405.554C542.739 407.049 545.309 409.526 548.113 412.984C550.917 416.442 553.702 420.199 556.468 424.255C559.216 428.33 561.665 432.143 563.814 435.695V435.835H537.739L522.598 413.404C521.289 411.442 520.243 410.04 519.458 409.199C518.654 408.358 517.719 407.843 516.654 407.657C515.57 407.47 513.859 407.376 511.523 407.376H508.579ZM524.841 365.319H508.579V389.151H524.841C529.514 389.151 532.766 388.217 534.598 386.347C536.411 384.478 537.318 381.441 537.318 377.235C537.318 373.029 536.411 369.992 534.598 368.123C532.766 366.253 529.514 365.319 524.841 365.319ZM636.714 418.031V433.592C634.097 434.527 630.48 435.34 625.863 436.031C621.227 436.742 615.732 437.097 609.376 437.097C601.339 437.097 594.497 436.041 588.852 433.928C583.189 431.835 578.908 428.237 576.011 423.134C573.114 418.049 571.665 410.974 571.665 401.909C571.665 389.572 574.497 380.646 580.161 375.132C585.806 369.618 594.563 366.861 606.432 366.861C614.937 366.861 621.648 368.076 626.564 370.506C631.461 372.936 634.966 376.366 637.078 380.796C639.172 385.245 640.219 390.506 640.219 396.581C640.219 398.357 640.153 400.273 640.022 402.329C639.873 404.385 639.611 406.395 639.237 408.358L638.677 408.918H592.553C593.208 413.031 595.152 415.741 598.385 417.049C601.601 418.358 606.853 419.012 614.143 419.012C619.003 419.012 623.05 418.891 626.284 418.648C629.499 418.423 632.788 418.077 636.153 417.61L636.714 418.031ZM592.133 394.198H620.732C620.732 391.955 620.386 390.011 619.695 388.366C618.984 386.74 617.601 385.478 615.545 384.581C613.489 383.702 610.451 383.263 606.432 383.263C600.544 383.263 596.694 384.263 594.881 386.263C593.049 388.282 592.133 390.927 592.133 394.198ZM716.483 367.562V367.982L694.192 435.835H666.154L645.125 367.842V367.562H670.36C672.323 374.852 674.164 382.749 675.883 391.254C677.622 399.759 679.192 407.937 680.594 415.788H681.155C682.557 407.937 684.117 399.759 685.837 391.254C687.575 382.749 689.426 374.852 691.389 367.562H716.483ZM747.465 342.187C747.746 345.552 747.886 348.355 747.886 350.599C747.886 351.907 747.858 353.234 747.802 354.58C747.764 355.945 747.652 357.468 747.465 359.15C745.503 359.524 743.587 359.804 741.717 359.991C739.848 360.178 737.979 360.272 736.11 360.272C734.334 360.272 732.53 360.178 730.698 359.991C728.885 359.804 727.044 359.524 725.175 359.15C724.988 357.561 724.848 356.085 724.754 354.72C724.661 353.374 724.614 352.047 724.614 350.739C724.614 349.524 724.661 348.215 724.754 346.813C724.848 345.411 724.988 343.869 725.175 342.187C727.044 341.72 728.932 341.411 730.839 341.262C732.764 341.131 734.661 341.066 736.53 341.066C738.306 341.066 740.1 341.131 741.914 341.262C743.745 341.411 745.596 341.72 747.465 342.187ZM747.465 367.562V435.835H725.035V367.562H747.465ZM823.141 418.031V433.592C820.524 434.527 816.907 435.34 812.29 436.031C807.654 436.742 802.159 437.097 795.803 437.097C787.766 437.097 780.924 436.041 775.279 433.928C769.616 431.835 765.335 428.237 762.438 423.134C759.54 418.049 758.092 410.974 758.092 401.909C758.092 389.572 760.924 380.646 766.587 375.132C772.232 369.618 780.99 366.861 792.859 366.861C801.364 366.861 808.075 368.076 812.991 370.506C817.888 372.936 821.393 376.366 823.505 380.796C825.599 385.245 826.645 390.506 826.645 396.581C826.645 398.357 826.58 400.273 826.449 402.329C826.3 404.385 826.038 406.395 825.664 408.358L825.103 408.918H778.98C779.635 413.031 781.579 415.741 784.812 417.049C788.027 418.358 793.28 419.012 800.57 419.012C805.43 419.012 809.477 418.891 812.71 418.648C815.925 418.423 819.215 418.077 822.58 417.61L823.141 418.031ZM778.56 394.198H807.159C807.159 391.955 806.813 390.011 806.121 388.366C805.411 386.74 804.028 385.478 801.972 384.581C799.916 383.702 796.878 383.263 792.859 383.263C786.971 383.263 783.121 384.263 781.308 386.263C779.476 388.282 778.56 390.927 778.56 394.198ZM882.021 398.965H881.741C880.432 405.413 879.077 411.722 877.675 417.891C876.273 424.059 874.778 430.04 873.189 435.835H848.936L831.552 367.562H854.824C856.132 374.571 857.441 381.861 858.749 389.432C860.058 397.002 861.226 404.432 862.254 411.722H862.535C863.936 404.432 865.46 397.002 867.105 389.432C868.731 381.861 870.385 374.571 872.068 367.562H891.694C893.377 374.571 895.04 381.861 896.685 389.432C898.311 397.002 899.826 404.432 901.227 411.722H901.508C902.536 404.432 903.704 397.002 905.013 389.432C906.321 381.861 907.63 374.571 908.938 367.562H932.49L915.106 435.835H890.853C889.358 430.04 887.844 424.059 886.311 417.891C884.76 411.722 883.33 405.413 882.021 398.965Z" fill="#FBBC05"/>
</g>
</g>
<mask id="mask7_5_50" style="mask-type:luminance" maskUnits="userSpaceOnUse" x="0" y="491" width="933" height="76">
<path d="M932.532 491.306H0.818481V566.422H932.532V491.306Z" fill="white"/>
</mask>
<g mask="url(#mask7_5_50)">
<mask id="mask8_5_50" style="mask-type:luminance" maskUnits="userSpaceOnUse" x="0" y="491" width="933" height="76">
<path d="M932.532 491.306H0.818481V566.422H932.532V491.306Z" fill="white"/>
</mask>
<g mask="url(#mask8_5_50)">
<path d="M29.3806 519.78C28.3324 523.448 27.2144 527.117 26.0266 530.785C24.827 534.454 23.6741 537.889 22.5678 541.092C21.4614 544.294 20.4424 547.06 19.5107 549.389C19.0449 549.68 18.5208 549.913 17.9385 550.088C17.3563 550.263 16.5702 550.35 15.5803 550.35C14.6486 550.35 13.7926 550.193 13.0124 549.878C12.2205 549.552 11.6789 549.04 11.3878 548.341C10.8055 547.177 10.1533 545.488 9.4313 543.275C8.69761 541.063 7.94063 538.53 7.16036 535.676C6.36845 532.823 5.56489 529.865 4.74968 526.802C3.93447 523.751 3.19496 520.799 2.53115 517.946C1.85569 515.092 1.28505 512.559 0.819214 510.347C1.22682 509.939 1.73924 509.561 2.35646 509.211C2.96205 508.862 3.70156 508.687 4.57499 508.687C5.68135 508.687 6.51402 508.99 7.07302 509.596C7.62037 510.213 8.01051 511.191 8.24343 512.53C8.76749 514.976 9.36725 517.742 10.0427 520.828C10.7065 523.914 11.4052 526.971 12.1389 529.999C12.861 533.027 13.5306 535.746 14.1478 538.157C14.7534 540.579 15.2018 542.373 15.4929 543.537H15.8423C16.3081 542.14 17.036 539.851 18.0259 536.672C19.0158 533.504 20.1978 529.883 21.572 525.806C22.9346 521.73 24.3146 517.596 25.7121 513.404C26.178 513.113 26.7311 512.891 27.3717 512.74C28.0122 512.6 28.7109 512.53 29.4679 512.53C30.516 512.53 31.3895 512.717 32.0882 513.089C32.787 513.474 33.2528 514.044 33.4857 514.801C34.8832 518.819 36.1934 522.761 37.4162 526.628C38.639 530.506 39.7162 533.941 40.6479 536.934C41.5796 539.939 42.2492 542.169 42.6568 543.625H43.0935C44.4328 538.442 45.8885 532.881 47.4607 526.942C49.0329 521.003 50.3139 515.18 51.3038 509.473C52.119 508.949 53.1089 508.687 54.2735 508.687C55.2634 508.687 56.0495 508.92 56.6318 509.386C57.2141 509.852 57.5052 510.58 57.5052 511.569C57.5052 512.21 57.3189 513.433 56.9462 515.238C56.5619 517.043 56.0495 519.168 55.409 521.614C54.7684 524.06 54.058 526.662 53.2778 529.423C52.4859 532.194 51.6823 534.873 50.8671 537.458C50.0519 540.055 49.2833 542.402 48.5612 544.498C47.8275 546.594 47.1987 548.225 46.6746 549.389C46.3835 549.622 45.906 549.843 45.2422 550.053C44.5667 550.251 43.7923 550.35 42.9188 550.35C40.5314 550.35 39.1339 549.797 38.7263 548.691C37.9111 546.594 36.9795 543.986 35.9313 540.865C34.8832 537.755 33.806 534.378 32.6996 530.733C31.5933 527.099 30.4869 523.448 29.3806 519.78ZM125.948 529.999L96.6002 534.104L96.2508 528.601L122.629 525.02C122.396 521.818 121.29 519.18 119.31 517.107C117.33 515.046 114.593 514.015 111.099 514.015C107.489 514.015 104.502 515.308 102.138 517.893C99.7853 520.49 98.6091 524.205 98.6091 529.038V530.96C99.0167 535.618 100.543 539.153 103.186 541.563C105.841 543.986 109.469 545.197 114.069 545.197C116.515 545.197 118.727 544.789 120.707 543.974C122.687 543.159 124.259 542.285 125.424 541.354C126.064 541.761 126.571 542.239 126.944 542.786C127.328 543.345 127.52 543.974 127.52 544.673C127.52 545.779 126.891 546.81 125.633 547.765C124.387 548.731 122.728 549.506 120.655 550.088C118.594 550.67 116.282 550.961 113.72 550.961C109.236 550.961 105.346 550.146 102.051 548.516C98.7663 546.885 96.2334 544.451 94.4516 541.214C92.6814 537.988 91.7963 534.046 91.7963 529.388C91.7963 526.069 92.2738 523.11 93.2288 520.513C94.1954 517.928 95.5346 515.733 97.2466 513.928C98.9701 512.123 101.026 510.737 103.413 509.77C105.801 508.815 108.392 508.338 111.187 508.338C114.739 508.338 117.866 509.095 120.568 510.609C123.281 512.123 125.406 514.236 126.944 516.95C128.492 519.652 129.267 522.749 129.267 526.243C129.267 527.524 128.976 528.438 128.394 528.986C127.811 529.545 126.996 529.883 125.948 529.999ZM216.698 516.985V530.785H209.71V517.509C209.71 516.17 209.955 515.104 210.444 514.312C210.945 513.532 211.778 512.763 212.942 512.006C214.456 511.016 216.523 510.155 219.144 509.421C221.764 508.699 224.675 508.338 227.878 508.338C232.536 508.338 234.865 509.502 234.865 511.832C234.865 512.414 234.778 512.95 234.603 513.439C234.429 513.939 234.196 514.364 233.905 514.714C233.322 514.597 232.565 514.481 231.634 514.364C230.702 514.248 229.77 514.19 228.839 514.19C226.16 514.19 223.802 514.463 221.764 515.011C219.726 515.57 218.037 516.228 216.698 516.985ZM209.71 547.118V526.767L216.698 527.815V549.651C216.407 549.768 215.97 549.902 215.388 550.053C214.805 550.193 214.165 550.263 213.466 550.263C212.243 550.263 211.312 550.012 210.671 549.512C210.031 549.022 209.71 548.225 209.71 547.118ZM283.9 545.284C286.346 545.284 288.372 545.034 289.979 544.533C291.575 544.044 292.722 543.566 293.421 543.101V530.436L282.59 531.571C279.562 531.804 277.32 532.474 275.864 533.58C274.409 534.686 273.681 536.288 273.681 538.384C273.681 540.538 274.543 542.227 276.266 543.45C277.978 544.673 280.523 545.284 283.9 545.284ZM283.813 508.338C288.879 508.338 292.897 509.473 295.866 511.744C298.836 514.015 300.321 517.596 300.321 522.487V543.188C300.321 544.469 300.076 545.441 299.587 546.105C299.086 546.781 298.341 547.409 297.351 547.992C295.954 548.749 294.09 549.448 291.761 550.088C289.432 550.729 286.812 551.049 283.9 551.049C278.427 551.049 274.193 549.972 271.2 547.817C268.196 545.663 266.693 542.547 266.693 538.471C266.693 534.686 267.963 531.787 270.502 529.772C273.029 527.769 276.534 526.563 281.018 526.156L293.421 524.933V522.487C293.421 519.576 292.547 517.451 290.8 516.111C289.053 514.772 286.695 514.102 283.725 514.102C281.338 514.102 279.055 514.452 276.878 515.151C274.688 515.849 272.749 516.635 271.061 517.509C270.595 517.101 270.175 516.618 269.803 516.059C269.419 515.512 269.226 514.947 269.226 514.364C269.226 512.851 270.071 511.686 271.759 510.871C273.332 510.056 275.154 509.427 277.227 508.984C279.288 508.553 281.484 508.338 283.813 508.338ZM339.59 539.257V526.767H346.578V538.821C346.578 541.15 347.248 542.792 348.587 543.747C349.926 544.713 351.76 545.197 354.089 545.197C355.079 545.197 356.186 545.022 357.408 544.673C358.631 544.323 359.65 543.916 360.466 543.45C360.815 543.799 361.135 544.236 361.426 544.76C361.717 545.284 361.863 545.896 361.863 546.594C361.863 547.875 361.106 548.923 359.592 549.739C358.078 550.554 355.982 550.961 353.303 550.961C349.227 550.961 345.92 550.059 343.381 548.254C340.854 546.449 339.59 543.45 339.59 539.257ZM359.068 516.111H343.171V510.347H360.902C361.077 510.58 361.252 510.958 361.426 511.482C361.601 512.006 361.688 512.559 361.688 513.142C361.688 514.073 361.455 514.801 360.99 515.325C360.524 515.849 359.883 516.111 359.068 516.111ZM346.578 500.302V529.388H339.59V497.769C339.882 497.653 340.33 497.519 340.935 497.367C341.553 497.228 342.211 497.158 342.909 497.158C344.132 497.158 345.046 497.402 345.652 497.891C346.269 498.392 346.578 499.196 346.578 500.302ZM430.288 529.999L400.941 534.104L400.591 528.601L426.969 525.02C426.736 521.818 425.63 519.18 423.65 517.107C421.67 515.046 418.933 514.015 415.44 514.015C411.829 514.015 408.848 515.308 406.496 517.893C404.131 520.49 402.949 524.205 402.949 529.038V530.96C403.357 535.618 404.888 539.153 407.544 541.563C410.187 543.986 413.809 545.197 418.409 545.197C420.855 545.197 423.068 544.789 425.047 543.974C427.027 543.159 428.599 542.285 429.764 541.354C430.404 541.761 430.917 542.239 431.301 542.786C431.674 543.345 431.86 543.974 431.86 544.673C431.86 545.779 431.237 546.81 429.991 547.765C428.733 548.731 427.074 549.506 425.012 550.088C422.94 550.67 420.622 550.961 418.06 550.961C413.576 550.961 409.692 550.146 406.408 548.516C403.113 546.885 400.58 544.451 398.809 541.214C397.028 537.988 396.137 534.046 396.137 529.388C396.137 526.069 396.62 523.11 397.587 520.513C398.542 517.928 399.881 515.733 401.604 513.928C403.316 512.123 405.366 510.737 407.753 509.77C410.141 508.815 412.732 508.338 415.527 508.338C419.079 508.338 422.212 509.095 424.925 510.609C427.627 512.123 429.752 514.236 431.301 516.95C432.838 519.652 433.607 522.749 433.607 526.243C433.607 527.524 433.316 528.438 432.734 528.986C432.151 529.545 431.336 529.883 430.288 529.999ZM536.515 517.422H519.92V511.744H538.437C538.612 511.977 538.786 512.338 538.961 512.827C539.136 513.328 539.223 513.899 539.223 514.539C539.223 515.471 538.99 516.181 538.524 516.67C538.058 517.171 537.389 517.422 536.515 517.422ZM521.143 506.242V516.461H514.243V505.892C514.243 502.457 514.866 499.673 516.112 497.542C517.37 495.423 519.175 493.85 521.527 492.826C523.891 491.812 526.704 491.306 529.965 491.306C533.284 491.306 535.886 491.742 537.773 492.616C539.671 493.489 540.62 494.567 540.62 495.848C540.62 496.488 540.487 497.07 540.219 497.594C539.962 498.119 539.601 498.614 539.136 499.079C538.087 498.497 536.777 498.014 535.205 497.629C533.633 497.257 532.119 497.07 530.663 497.07C527.111 497.07 524.637 497.798 523.239 499.254C521.842 500.71 521.143 503.039 521.143 506.242ZM514.243 547.118V512.618H521.23V549.651C520.939 549.768 520.502 549.902 519.92 550.053C519.338 550.193 518.697 550.263 517.998 550.263C516.776 550.263 515.844 550.012 515.203 549.512C514.563 549.022 514.243 548.225 514.243 547.118ZM612.801 529.65C612.801 533.959 611.986 537.714 610.356 540.917C608.725 544.12 606.425 546.594 603.455 548.341C600.486 550.088 596.992 550.961 592.974 550.961C588.956 550.961 585.451 550.088 582.458 548.341C579.453 546.594 577.136 544.12 575.505 540.917C573.875 537.714 573.06 533.959 573.06 529.65C573.06 525.282 573.893 521.509 575.558 518.33C577.212 515.162 579.541 512.705 582.545 510.958C585.538 509.211 589.015 508.338 592.974 508.338C596.934 508.338 600.398 509.211 603.368 510.958C606.338 512.705 608.655 515.162 610.321 518.33C611.974 521.509 612.801 525.282 612.801 529.65ZM592.974 514.102C589.073 514.102 585.975 515.488 583.681 518.26C581.375 521.02 580.222 524.817 580.222 529.65C580.222 534.541 581.346 538.355 583.594 541.092C585.83 543.828 588.956 545.197 592.974 545.197C596.934 545.197 600.037 543.811 602.285 541.039C604.521 538.279 605.639 534.483 605.639 529.65C605.639 524.817 604.521 521.02 602.285 518.26C600.037 515.488 596.934 514.102 592.974 514.102ZM657.049 516.985V530.785H650.062V517.509C650.062 516.17 650.307 515.104 650.796 514.312C651.296 513.532 652.129 512.763 653.294 512.006C654.808 511.016 656.875 510.155 659.495 509.421C662.115 508.699 665.027 508.338 668.23 508.338C672.888 508.338 675.217 509.502 675.217 511.832C675.217 512.414 675.13 512.95 674.955 513.439C674.78 513.939 674.547 514.364 674.256 514.714C673.674 514.597 672.917 514.481 671.985 514.364C671.054 514.248 670.122 514.19 669.19 514.19C666.512 514.19 664.153 514.463 662.115 515.011C660.077 515.57 658.389 516.228 657.049 516.985ZM650.062 547.118V526.767L657.049 527.815V549.651C656.758 549.768 656.322 549.902 655.739 550.053C655.157 550.193 654.517 550.263 653.818 550.263C652.595 550.263 651.663 550.012 651.023 549.512C650.382 549.022 650.062 548.225 650.062 547.118ZM761.949 540.83C760.959 538.966 759.766 536.451 758.368 533.283C756.971 530.104 755.527 526.546 754.036 522.61C752.557 518.685 751.148 514.685 749.808 510.609C750.216 510.026 750.752 509.561 751.416 509.211C752.091 508.862 752.807 508.687 753.564 508.687C754.554 508.687 755.369 508.949 756.01 509.473C756.65 509.997 757.174 510.871 757.582 512.094C759.329 516.985 761.163 521.847 763.085 526.68C765.006 531.513 767.132 536.521 769.461 541.703H769.81C771.033 539.257 772.314 536.2 773.653 532.532C774.993 528.864 776.274 524.991 777.496 520.915C778.719 516.839 779.738 512.996 780.553 509.386C780.961 509.211 781.409 509.048 781.898 508.897C782.399 508.757 782.941 508.687 783.523 508.687C784.513 508.687 785.328 508.932 785.969 509.421C786.609 509.922 786.929 510.667 786.929 511.657C786.929 512.588 786.667 514.143 786.143 516.321C785.619 518.51 784.903 521.043 783.995 523.92C783.098 526.808 782.05 529.865 780.85 533.091C779.663 536.328 778.381 539.502 777.007 542.611C775.645 545.732 774.265 548.545 772.867 551.049C770.189 555.998 767.743 559.801 765.53 562.456C763.318 565.099 761.28 566.421 759.416 566.421C758.077 566.421 757.04 566.072 756.307 565.373C755.585 564.674 755.136 563.859 754.962 562.928C756.243 561.821 757.681 560.354 759.277 558.525C760.884 556.685 762.427 554.706 763.906 552.586C765.396 550.455 766.608 548.428 767.539 546.507C766.549 546.216 765.629 545.692 764.779 544.935C763.941 544.178 762.997 542.809 761.949 540.83ZM860.351 529.65C860.351 533.959 859.535 537.714 857.905 540.917C856.274 544.12 853.974 546.594 851.005 548.341C848.035 550.088 844.541 550.961 840.524 550.961C836.506 550.961 832.994 550.088 829.99 548.341C826.997 546.594 824.685 544.12 823.055 540.917C821.424 537.714 820.609 533.959 820.609 529.65C820.609 525.282 821.436 521.509 823.09 518.33C824.755 515.162 827.084 512.705 830.077 510.958C833.082 509.211 836.564 508.338 840.524 508.338C844.483 508.338 847.948 509.211 850.917 510.958C853.887 512.705 856.199 515.162 857.853 518.33C859.518 521.509 860.351 525.282 860.351 529.65ZM840.524 514.102C836.622 514.102 833.519 515.488 831.213 518.26C828.918 521.02 827.771 524.817 827.771 529.65C827.771 534.541 828.889 538.355 831.125 541.092C833.373 543.828 836.506 545.197 840.524 545.197C844.483 545.197 847.581 543.811 849.817 541.039C852.065 538.279 853.188 534.483 853.188 529.65C853.188 524.817 852.065 521.02 849.817 518.26C847.581 515.488 844.483 514.102 840.524 514.102ZM897.594 535.065V527.117H904.581V534.716C904.581 538.442 905.571 541.121 907.551 542.751C909.531 544.382 912.268 545.197 915.761 545.197C918.091 545.197 920.07 544.946 921.701 544.446C923.331 543.956 924.612 543.45 925.544 542.926V527.117H932.531V542.664C932.531 543.887 932.374 544.859 932.06 545.581C931.734 546.315 930.959 547.031 929.736 547.73C928.455 548.487 926.621 549.215 924.234 549.913C921.846 550.612 918.993 550.961 915.674 550.961C911.831 550.961 908.558 550.391 905.857 549.25C903.143 548.12 901.088 546.373 899.69 544.009C898.293 541.656 897.594 538.675 897.594 535.065ZM932.531 512.268V531.659H925.544V509.648C925.835 509.531 926.289 509.398 926.906 509.246C927.512 509.106 928.135 509.037 928.775 509.037C930.057 509.037 931.006 509.281 931.623 509.77C932.228 510.271 932.531 511.104 932.531 512.268ZM904.581 512.268V531.659H897.594V509.648C897.885 509.531 898.339 509.398 898.956 509.246C899.562 509.106 900.214 509.037 900.913 509.037C902.136 509.037 903.056 509.281 903.673 509.77C904.279 510.271 904.581 511.104 904.581 512.268Z" fill="#34A853"/>
</g>
</g>
</g>
</g>
<mask id="mask9_5_50" style="mask-type:luminance" maskUnits="userSpaceOnUse" x="310" y="0" width="313" height="313">
<path d="M622.397 0.929688H310.955V312.372H622.397V0.929688Z" fill="white"/>
</mask>
<g mask="url(#mask9_5_50)">
<mask id="mask10_5_50" style="mask-type:luminance" maskUnits="userSpaceOnUse" x="310" y="0" width="313" height="313">
<path d="M622.397 0.929688H310.955V312.372H622.397V0.929688Z" fill="white"/>
</mask>
<g mask="url(#mask10_5_50)">
<path d="M560 61H358V263H560V61Z" fill="#FBBC05"/>
<path d="M466.675 0.929688C380.664 0.929688 310.955 70.6387 310.955 156.651C310.955 242.662 380.664 312.371 466.675 312.371C552.687 312.371 622.396 242.662 622.396 156.651C622.396 70.6387 552.687 0.929688 466.675 0.929688ZM524.579 238.165L466.675 207.808L408.772 238.165L420.015 173.516L373.355 128.542L438.005 118.985L466.675 60.5196L495.346 118.985L559.995 128.542L513.335 173.516L524.579 238.165Z" fill="#34A853"/>
</g>
</g>
</g>
</g>
</g>
</svg>
